<svg width="358" height="344" viewBox="0 0 358 344" fill="none" xmlns="http://www.w3.org/2000/svg">
<path opacity="0.05" d="M274.97 130.88L96.643 55.0021C94.1217 53.9282 91.3622 53.537 88.6418 53.8678C85.9214 54.1986 83.336 55.2397 81.1455 56.8865C78.9551 58.5334 77.2368 60.7278 76.1634 63.2493C75.09 65.7707 74.6993 68.5303 75.0306 71.2507L98.5556 263.594C98.8878 266.312 99.9295 268.896 101.576 271.084C103.222 273.273 105.416 274.99 107.936 276.063C110.456 277.136 113.214 277.526 115.933 277.196C118.651 276.866 121.236 275.826 123.425 274.181L278.246 157.677C280.43 156.03 282.142 153.838 283.21 151.32C284.279 148.803 284.667 146.049 284.335 143.334C284.003 140.619 282.963 138.04 281.319 135.854C279.676 133.668 277.486 131.953 274.97 130.88Z" stroke="#00F2EA" stroke-width="10" stroke-miterlimit="10"/>
<path opacity="0.05" d="M265.603 190.864C291.808 203.173 323.029 191.907 335.337 165.703C347.646 139.498 336.381 108.277 310.176 95.9682C283.971 83.6597 252.75 94.9248 240.442 121.13C228.133 147.334 239.398 178.556 265.603 190.864Z" stroke="#00F2EA" stroke-width="10" stroke-miterlimit="10"/>
</svg>
