<svg width="209" height="220" viewBox="0 0 209 220" fill="none" xmlns="http://www.w3.org/2000/svg">
<path opacity="0.05" d="M34.2271 9.17745L7.39072 44.214C6.21029 45.755 5.43242 47.599 5.13531 49.5606C4.8382 51.5222 5.03235 53.5324 5.69817 55.3891C6.36398 57.2457 7.47798 58.8835 8.92834 60.1378C10.3787 61.3921 12.1143 62.2188 13.9606 62.5347L55.9346 69.6941C57.781 70.0108 59.6734 69.8051 61.4212 69.0978C63.1689 68.3904 64.7104 67.2062 65.8904 65.6646C67.0704 64.123 67.8473 62.2784 68.1428 60.3163C68.4383 58.3543 68.242 56.3442 67.5737 54.4884L52.436 12.2502C51.7646 10.399 50.6472 8.76779 49.1956 7.51992C47.7439 6.27204 46.0091 5.45137 44.1649 5.14016C42.3207 4.82894 40.4318 5.03812 38.6876 5.7467C36.9435 6.45527 35.4053 7.63836 34.2271 9.17745Z" stroke="#8AE8E5" stroke-width="10" stroke-miterlimit="10"/>
<path opacity="0.05" d="M198.744 113.112C202.106 116.665 203.994 121.48 203.994 126.501C203.994 131.522 202.106 136.337 198.744 139.89L178.454 161.283L198.744 182.694C200.41 184.45 201.732 186.536 202.634 188.832C203.535 191.127 204 193.588 204 196.073C204 198.559 203.535 201.02 202.634 203.316C201.732 205.611 200.41 207.697 198.744 209.453C197.079 211.212 195.103 212.607 192.927 213.558C190.752 214.51 188.42 215 186.065 215C183.71 215 181.378 214.51 179.202 213.558C177.027 212.607 175.051 211.212 173.386 209.453L153.097 188.06L132.808 209.453C131.143 211.212 129.167 212.607 126.992 213.558C124.816 214.51 122.484 215 120.129 215C117.774 215 115.442 214.51 113.267 213.558C111.091 212.607 109.115 211.212 107.45 209.453C104.094 205.902 102.209 201.09 102.209 196.073C102.209 191.057 104.094 186.246 107.45 182.694L127.74 161.283L107.45 139.89C104.093 136.335 102.207 131.52 102.207 126.501C102.207 121.482 104.093 116.667 107.45 113.112C110.816 109.57 115.375 107.581 120.129 107.581C124.882 107.581 129.442 109.57 132.808 113.112L153.097 134.523L173.386 113.112C176.752 109.57 181.311 107.581 186.065 107.581C190.818 107.581 195.378 109.57 198.744 113.112Z" stroke="#8AE8E5" stroke-width="10" stroke-miterlimit="10"/>
</svg>
