<svg width="23" height="39" viewBox="0 0 23 39" fill="none" xmlns="http://www.w3.org/2000/svg">
<path d="M4.28103 0.995388C3.90457 0.644605 3.40666 0.453634 2.89219 0.462712C2.37772 0.471789 1.88685 0.680206 1.523 1.04405C1.15916 1.40789 0.950743 1.89876 0.941666 2.41323C0.932589 2.92771 1.12356 3.42562 1.47434 3.80207L17.2818 19.6095L1.47434 35.417C1.27923 35.5988 1.12274 35.8181 1.0142 36.0617C0.905662 36.3052 0.847299 36.5682 0.842594 36.8349C0.83789 37.1015 0.88694 37.3664 0.986818 37.6136C1.0867 37.8609 1.23536 38.0855 1.42393 38.2741C1.61251 38.4627 1.83713 38.6113 2.08441 38.7112C2.33168 38.8111 2.59654 38.8601 2.86318 38.8554C3.12982 38.8507 3.39279 38.7924 3.63639 38.6838C3.87998 38.5753 4.09922 38.4188 4.28103 38.2237L21.4918 21.0129C21.8637 20.6405 22.0726 20.1358 22.0726 19.6095C22.0726 19.0833 21.8637 18.5785 21.4918 18.2062L4.28103 0.995388Z" fill="#FF0050"/>
</svg>
