<svg width="22" height="39" viewBox="0 0 22 39" fill="none" xmlns="http://www.w3.org/2000/svg">
<path d="M20.8702 0.995324C20.4979 0.623437 19.9932 0.414551 19.4669 0.414551C18.9406 0.414551 18.4359 0.623437 18.0636 0.995324L0.852746 18.2061C0.480859 18.5785 0.271973 19.0832 0.271973 19.6095C0.271973 20.1357 0.480859 20.6405 0.852746 21.0128L18.0636 38.2236C18.44 38.5744 18.9379 38.7654 19.4524 38.7563C19.9669 38.7472 20.4577 38.5388 20.8216 38.175C21.1854 37.8111 21.3938 37.3203 21.4029 36.8058C21.412 36.2913 21.221 35.7934 20.8702 35.4169L5.06278 19.6095L20.8702 3.80201C21.2421 3.42966 21.451 2.92492 21.451 2.39867C21.451 1.87241 21.2421 1.36767 20.8702 0.995324Z" fill="#00F2EA"/>
</svg>
