<svg width="72" height="70" viewBox="0 0 72 70" fill="none" xmlns="http://www.w3.org/2000/svg">
<path opacity="0.05" d="M35.5286 62.7926L66.0398 25.2825C66.9217 24.2001 67.5029 22.9045 67.725 21.5261C67.947 20.1477 67.8023 18.7351 67.3049 17.4305C66.8076 16.1259 65.9754 14.9753 64.8921 14.0944C63.8088 13.2136 62.5127 12.6336 61.1341 12.4129L13.3891 4.73864C12.0109 4.51841 10.5989 4.6647 9.29509 5.16264C7.99124 5.66058 6.84125 6.49262 5.96068 7.57547C5.08011 8.65832 4.50007 9.95391 4.27843 11.3319C4.0568 12.7099 4.20148 14.1219 4.69809 15.4262L21.9242 60.6105C22.4224 61.9148 23.2551 63.0651 24.3385 63.9457C25.422 64.8263 26.7183 65.4063 28.0969 65.6274C29.4755 65.8485 30.8878 65.703 32.1924 65.2054C33.4969 64.7078 34.6475 63.8757 35.5286 62.7926Z" stroke="#00F2EA" stroke-width="7.42188" stroke-miterlimit="10"/>
</svg>
