<svg width="64" height="65" viewBox="0 0 64 65" fill="none" xmlns="http://www.w3.org/2000/svg">
<path opacity="0.05" d="M6.87502 57.6485C5.02905 55.8004 3.99216 53.2951 3.99216 50.683C3.99216 48.071 5.02905 45.5657 6.87502 43.7176L18.0078 32.5848L6.87502 21.452C5.02951 19.6052 3.99288 17.101 3.99288 14.4902C3.99288 11.8793 5.02951 9.37535 6.87502 7.52853C7.78912 6.61273 8.87469 5.88613 10.0699 5.3904C11.2651 4.89467 12.5463 4.63951 13.8403 4.63951C15.1342 4.63951 16.4154 4.89467 17.6106 5.3904C18.8059 5.88613 19.8918 6.61273 20.8059 7.52853L31.9387 18.6613L43.0715 7.52853C43.9856 6.61273 45.0712 5.88613 46.2664 5.3904C47.4616 4.89467 48.7428 4.63951 50.0368 4.63951C51.3307 4.63951 52.6119 4.89467 53.8071 5.3904C55.0024 5.88613 56.0883 6.61273 57.0024 7.52853C58.8479 9.37535 59.8845 11.8793 59.8845 14.4902C59.8845 17.101 58.8479 19.6052 57.0024 21.452L45.8696 32.5848L57.0024 43.7176C58.8484 45.5657 59.8853 48.071 59.8853 50.683C59.8853 53.2951 58.8484 55.8004 57.0024 57.6485C55.1543 59.4944 52.6489 60.5312 50.0368 60.5312C47.4247 60.5313 44.9196 59.4944 43.0715 57.6485L31.9387 46.5157L20.8059 57.6485C18.9578 59.4944 16.4524 60.5313 13.8403 60.5312C11.2282 60.5312 8.7231 59.4944 6.87502 57.6485Z" stroke="#A5FFFC" stroke-width="7.42188" stroke-miterlimit="10"/>
</svg>
