<svg width="927" height="448" viewBox="0 0 927 448" fill="none" xmlns="http://www.w3.org/2000/svg">
<path d="M306.893 263.307L199.53 304.112L205.158 318.832L312.521 278.026L306.893 263.307Z" fill="white"/>
<path d="M224.9 311.787L210.4 300.022L199.6 304.11L214 315.874L224.9 311.787Z" fill="black"/>
<path d="M246 303.711L231.5 291.946L220.7 296.133L235.2 307.799L246 303.711Z" fill="black"/>
<path d="M267.7 295.435L253.2 283.77L242.4 287.858L256.9 299.623L267.7 295.435Z" fill="black"/>
<path d="M288.8 287.459L274.4 275.694L263.5 279.782L278 291.547L288.8 287.459Z" fill="black"/>
<path d="M310.3 279.284L295.8 267.519L284.9 271.706L299.4 283.371L310.3 279.284Z" fill="black"/>
<path d="M293.501 228.219L186.139 269.025L199.568 304.147L306.93 263.341L293.501 228.219Z" fill="#00F2EA"/>
<path d="M319.4 317.569H204.5V332.724H319.4V317.569Z" fill="white"/>
<path d="M225.5 316.672L216.1 332.724H204.5L213.9 316.672H225.5Z" fill="black"/>
<path d="M248.1 316.672L238.8 332.724H227.2L236.5 316.672H248.1Z" fill="black"/>
<path d="M271.3 316.672L262 332.724H250.4L259.7 316.672H271.3Z" fill="black"/>
<path d="M293.9 316.672L284.6 332.724H273L282.3 316.672H293.9Z" fill="black"/>
<path d="M316.8 316.672L307.5 332.724H295.9L305.2 316.672H316.8Z" fill="black"/>
<path d="M319.4 332.026V369.814H250.8V447.382H204.5V332.824" fill="#00F2EA"/>
<path d="M340.7 447.283V254.856H455.9V292.644H387V331.927H444.3V369.714H387V409.595H455.9V447.382H340.7V447.283Z" fill="white"/>
<path d="M476.9 319.165V254.956H592.1V322.056H545.8V292.743H523.2V315.276L592.1 382.875V447.382H476.9V380.183H523.2V409.495H545.8V386.962L476.9 319.165Z" fill="white"/>
<path d="M613.1 292.644V254.856H728.3V292.644H693.6V447.283H647.3V292.644H613.1Z" fill="white"/>
<path d="M0 32.5031H115.2V98.0077H68.9V70.1906H46.2V187.142H68.8V159.325H115.1V224.829H0V32.5031Z" fill="white"/>
<path d="M136.1 224.829V32.4033H251.3V102.095L226.6 128.816L251.3 155.038V224.73H205V155.536L196.6 147.161H182.4V224.73H136.1V224.829ZM182.4 109.573H196.6L205 101.198V70.2903H182.4V109.573Z" fill="white"/>
<path d="M272.3 224.829V32.4033H387.5V70.1906H318.6V109.573H375.9V147.36H318.6V187.242H387.5V225.029H272.3V224.829Z" fill="white"/>
<path d="M538.9 70.1906V32.4033H654.1V70.1906H619.4V224.829H573.1V70.1906H538.9Z" fill="white"/>
<path d="M675.1 224.829V32.4033H790.3V224.829H675.1ZM744 187.142V70.1906H721.4V187.142H744Z" fill="white"/>
<path d="M811.3 224.829V32.4033H926.5V102.095L901.8 128.816L926.5 155.038V224.73H880.2V155.536L871.8 147.161H857.6V224.73H811.3V224.829ZM857.6 109.573H871.8L880.2 101.198V70.2903H857.6V109.573Z" fill="white"/>
<path d="M521.3 32.2039H406.4V225.228H521.3V32.2039Z" fill="#FF0050"/>
<path d="M484.8 124.03H441.2C437.9 124.03 435.2 121.338 435.2 118.048V75.4749C435.2 72.1847 437.9 69.4927 441.2 69.4927H484.8C488.1 69.4927 490.8 72.1847 490.8 75.4749V118.048C490.8 121.338 488.1 124.03 484.8 124.03Z" fill="#111111"/>
<path d="M490.8 228.219H435.2V152.545C435.2 149.255 437.9 146.563 441.2 146.563H484.8C488.1 146.563 490.8 149.255 490.8 152.545V228.219Z" fill="#111111"/>
<path d="M484.8 48.7546H441.2C437.9 48.7546 435.2 46.0626 435.2 42.7724V0H490.8V42.7724C490.8 46.0626 488.1 48.7546 484.8 48.7546Z" fill="#111111"/>
</svg>
