<svg width="873" height="139" viewBox="0 0 873 139" fill="none" xmlns="http://www.w3.org/2000/svg">
<path d="M10.4891 55.28C10.1691 55.68 7.92906 54.64 7.28906 54C6.56906 53.36 6.24906 52.48 6.48906 52.08C14.3291 40.88 38.8091 35.28 52.3291 36.32C56.4091 36.56 59.5291 37.6 61.1291 39.36C62.0891 40.4 62.5691 41.44 62.4891 42.48C62.2491 45.84 58.4891 51.68 54.4091 58C49.8491 65.28 44.8091 73.12 44.4891 77.92C44.4091 79.36 44.8091 81.2 47.0491 81.36C56.3291 81.92 72.4091 66 83.1291 55.76C89.0491 50.08 93.4491 45.84 95.0491 46.32C96.9691 46.96 97.6891 48.32 96.8891 50.8C96.2491 52.8 94.8091 56.56 92.6491 61.44C91.3691 64.48 89.7691 68 88.0091 71.76C89.1291 71.36 90.1691 70.96 91.2891 70.64C91.6891 70.48 92.5691 70.96 93.1291 71.68C93.6891 72.4 93.7691 73.2 93.2891 73.36C90.8091 74.16 88.4091 75.12 85.9291 76.08C80.7291 86.88 74.0891 99.12 67.1291 109.76C56.4891 125.92 44.8891 138.24 35.6091 135.28C35.2891 135.2 34.8891 135.04 34.5691 134.96L34.4891 134.88C31.6091 133.6 29.5291 131.92 28.0891 129.84C22.1691 121.04 30.8091 108.56 36.6491 102.56C47.4491 91.6 65.8491 80.88 83.5291 73.52C86.1691 68.24 88.4091 63.28 90.1691 59.2C91.6891 55.68 92.8891 52.72 93.6091 50.64C91.6891 52.24 88.8091 55.04 85.4491 58.24C74.5691 68.64 58.7291 83.84 48.9691 83.28C43.5291 82.96 41.6091 80.16 41.8491 76.08C42.1691 70.96 47.2891 62.96 52.0091 55.6C55.9291 49.44 59.6091 43.68 59.8491 40.64C59.8491 40.48 60.0091 40.56 59.9291 40.48C59.2891 39.76 57.0491 39.28 53.8491 39.04C40.0091 38 18.5691 43.6 10.4891 55.28ZM96.0891 49.04C96.0891 48.96 96.0091 48.96 95.9291 49.04C96.3291 49.12 96.4891 49.12 96.0891 49.04ZM64.6491 107.36C70.7291 98.16 76.4891 87.76 81.2891 78.16C65.2891 85.44 50.2491 95.76 40.4091 105.76C36.0091 110.32 25.2891 122.64 29.9291 129.52C30.6491 130.56 31.9291 131.52 33.7691 132.32L33.8491 132.4C34.1691 132.48 34.3291 132.56 34.5691 132.64C43.0491 135.28 54.2491 123.2 64.6491 107.36ZM98.7122 75.36C99.0322 75.12 99.8322 75.44 100.472 76.16C101.112 76.88 101.272 77.68 100.952 78C100.712 78.16 100.472 78.32 100.312 78.48C98.6322 80 97.2722 82.48 96.3922 84.96C95.7522 87.04 95.4322 88.96 95.8322 89.76C96.2322 89.92 96.7122 89.92 97.3522 89.76C98.0722 89.52 98.9522 89.04 99.7522 88.24C100.872 87.28 101.912 85.84 102.872 84C103.432 82.96 103.832 81.84 104.152 80.72C102.712 79.52 101.672 78.08 101.032 76.64C100.392 75.2 100.152 73.76 100.232 72.72C100.392 71.6 100.872 70.8 101.832 70.64C102.552 70.56 103.192 70.72 103.832 71.04C104.872 71.6 105.752 72.56 106.312 73.76C106.792 74.64 107.032 75.6 107.192 76.64C107.352 77.68 107.352 78.88 107.192 80.08C108.952 80.4 111.592 80.72 114.392 79.12C114.792 78.88 115.192 78.56 115.832 79.28C116.392 80 116.312 80.56 115.912 80.8C112.152 82.88 109.352 83.2 106.872 82.32C106.552 83.68 106.072 85.12 105.352 86.32C104.392 88.16 103.272 89.76 102.072 90.8C101.112 91.6 100.232 92.24 99.3522 92.48C98.3122 92.8 97.2722 92.72 96.2322 92.16C95.6722 91.84 95.1122 91.44 94.6322 90.88C94.4722 90.72 94.3122 90.56 94.1522 90.4C92.8722 88.56 92.9522 85.6 93.8322 82.8C94.7122 80.16 96.2322 77.52 97.9922 75.92C98.2322 75.76 98.4722 75.52 98.7122 75.36ZM104.552 78.8C104.712 77.52 104.712 76.24 104.552 75.2C104.472 74.48 104.312 73.84 104.152 73.44C104.072 73.44 104.232 73.44 104.232 73.44C104.152 73.36 103.912 73.36 103.672 73.44C103.192 73.44 102.952 73.92 102.872 74.64C102.792 75.36 102.952 76.24 103.352 77.12C103.592 77.76 103.992 78.32 104.552 78.8ZM118.908 72.4C119.228 72.08 120.028 72.4 120.668 73.04C121.308 73.76 121.548 74.56 121.308 74.96C115.228 81.92 114.748 86.72 115.308 87.2C116.268 88 122.428 84.08 126.748 76.8L126.988 76.48C127.308 76.16 128.108 76.4 128.748 77.12C129.388 77.76 129.708 78.64 129.388 78.96C129.388 78.96 129.228 79.2 128.828 79.52C127.788 80.8 121.788 89.28 127.788 86.4C130.908 84.88 134.588 81.92 136.668 79.2C136.988 78.8 137.308 78 138.028 78.72C138.668 79.36 138.268 79.84 137.948 80.16C135.788 82.96 132.748 86.72 129.548 88.24C126.748 89.6 123.228 88.96 122.748 85.52C114.828 92.32 108.348 91.04 112.748 81.28C114.188 78.08 116.828 74.64 118.908 72.4ZM141.339 70.8C141.579 70.4 142.379 70.64 143.019 71.28C143.739 71.92 144.059 72.8 143.819 73.2L140.859 77.92C143.659 76.56 147.499 75.28 149.099 77.28C149.819 78.08 149.579 79.92 150.619 80C152.139 80.08 154.379 79.76 156.539 79.12C157.019 78.96 157.499 78.56 157.979 79.28C158.539 80.08 158.219 80.32 157.739 80.4C155.419 81.12 151.579 81.92 149.899 81.76C147.819 81.6 147.179 81.04 145.419 78.96C144.219 77.52 137.099 83.84 137.099 83.84C136.939 83.92 132.779 90.96 132.379 91.68C132.139 92.08 131.339 91.84 130.699 91.2C129.979 90.56 129.659 89.68 129.899 89.28L141.339 70.8ZM191.267 66.4C191.027 66.24 190.787 65.92 190.627 65.68C190.147 64.96 190.227 64.32 190.787 64.24C191.587 64.24 193.747 62.08 195.907 59.36L196.547 58.72C197.907 56.56 199.107 54.72 199.987 53.28C200.947 51.68 201.667 50.56 202.227 50C202.307 49.68 202.547 49.6 202.947 49.68H203.027C204.627 50.16 205.187 51.04 204.787 52.48C204.467 53.68 201.747 57.68 198.947 61.12C197.427 63.44 195.587 66.08 193.587 68.88C191.187 72.24 187.507 77.6 183.587 83.28C186.947 83.36 192.547 83.6 198.227 79.36C198.547 79.12 198.947 78.48 199.507 79.2C200.147 79.92 200.387 80.72 199.987 80.96C192.147 86.8 185.107 86.32 181.987 85.68L181.427 86.4C181.587 88.32 181.507 91.6 180.387 96.56C179.587 100.32 177.827 103.12 175.827 105.2C173.107 108 169.907 109.36 168.147 109.2L168.067 109.12C167.907 109.12 167.827 109.12 167.667 109.04L167.507 108.96C165.667 108.08 165.507 106.32 166.547 104.08C167.267 102.64 168.387 100.64 169.747 98.32C172.147 94.32 175.427 89.28 178.787 84.32C178.707 83.76 178.627 83.52 178.627 83.52C178.387 82.8 178.707 82.32 179.347 82.56H179.427C179.427 82.56 179.587 82.64 179.907 82.72C184.227 76.32 188.547 70.24 191.187 66.48L191.267 66.4ZM178.547 90.8C176.147 94.4 173.987 97.84 172.227 100.72C171.027 102.64 170.067 104.4 169.427 105.68C170.707 105.12 172.147 104.08 173.507 102.72C175.347 100.72 177.027 98.08 177.827 94.56C178.147 93.12 178.387 91.92 178.547 90.8ZM203.456 73.04C203.856 72.72 204.656 73.04 205.296 73.76C205.936 74.48 206.176 75.28 205.776 75.6C204.016 77.12 201.136 80.56 199.376 83.92C198.256 86.16 198.336 87.44 199.136 87.84C202.416 88.32 211.296 79.68 211.296 79.6C211.616 79.28 212.176 78.64 212.816 79.36C213.536 80.08 213.216 80.32 212.896 80.64C212.816 80.64 199.536 95.04 196.096 89.04C194.976 87.04 195.536 84.32 196.896 81.6C198.656 78.16 201.616 74.56 203.456 73.04ZM208.416 70.72C208.096 71.12 207.296 70.8 206.656 70.16C206.016 69.44 205.696 68.64 206.016 68.24L210.496 63.12C210.816 62.72 211.536 63.04 212.256 63.68C212.896 64.4 213.136 65.2 212.896 65.6L208.416 70.72ZM216.339 70.8C216.579 70.4 217.379 70.64 218.019 71.28C218.739 71.92 219.059 72.8 218.819 73.2L215.859 77.92C218.659 76.56 222.499 75.28 224.099 77.28C224.819 78.08 224.579 79.92 225.619 80C227.139 80.08 229.379 79.76 231.539 79.12C232.019 78.96 232.499 78.56 232.979 79.28C233.539 80.08 233.219 80.32 232.739 80.4C230.419 81.12 226.579 81.92 224.899 81.76C222.819 81.6 222.179 81.04 220.419 78.96C219.219 77.52 212.099 83.84 212.099 83.84C211.939 83.92 207.779 90.96 207.379 91.68C207.139 92.08 206.339 91.84 205.699 91.2C204.979 90.56 204.659 89.68 204.899 89.28L216.339 70.8ZM231.933 82C231.613 82.32 230.653 82.8 230.013 82.16C229.373 81.44 231.053 80 231.373 79.68L237.373 72.4C238.413 71.28 239.213 70.64 239.213 70.64C239.533 70.32 240.333 70.64 240.893 71.36C241.533 72 241.853 72.88 241.533 73.2L239.613 75.04C237.933 76.96 235.693 80.4 236.573 84.08C237.053 86.4 236.813 88.24 236.173 89.6C235.773 90.32 235.213 90.88 234.653 91.36C234.093 91.76 233.453 92.08 232.813 92.24C231.693 92.48 230.573 92.32 229.693 91.84C225.133 89.52 227.613 85.04 227.613 84.96C227.853 84.56 228.573 84.72 229.293 85.36C230.013 86 230.333 86.88 230.173 87.28C230.173 87.36 229.053 89.36 229.213 89.44C229.533 89.6 230.173 89.6 230.813 89.44C231.373 89.36 231.933 89.12 232.413 88.72C232.893 88.4 233.373 87.84 233.613 87.28C234.173 86.16 234.413 84.72 234.013 82.88C234.013 81.84 233.293 81.76 235.213 78.24L231.933 82ZM266.986 43.44C267.226 43.12 268.026 43.28 268.666 44C269.306 44.64 269.626 45.52 269.386 45.84C269.386 45.92 263.546 54 257.306 63.36H277.706C278.266 63.36 279.146 64 279.546 64.72C280.026 65.52 279.946 66.16 279.386 66.16H255.466C253.786 68.72 252.106 71.36 250.506 73.92V74C250.506 74.32 250.346 74.48 250.186 74.48C245.306 82.4 242.666 86.96 243.546 88.56C244.986 91.28 261.226 78.32 261.226 78.24C261.546 78 262.026 77.84 262.666 78.56C263.306 79.28 262.826 79.68 262.506 79.92C262.426 80 244.266 97.92 240.346 90.72C239.146 88.48 242.826 80.8 247.946 72.32C247.866 72.32 248.426 71.44 248.426 71.44C248.586 65.36 228.106 66.16 228.106 66.16C227.546 66.16 226.666 65.52 226.266 64.72C225.786 64 225.866 63.36 226.426 63.36H253.466C260.186 52.88 266.906 43.52 266.986 43.44ZM249.306 70C250.106 68.72 250.906 67.44 251.706 66.16L241.706 65.76C244.106 66.72 248.026 68.32 249.306 70ZM287.324 82C287.004 82.32 286.044 82.8 285.404 82.16C284.764 81.44 286.444 80 286.764 79.68L292.764 72.4C293.804 71.28 294.604 70.64 294.604 70.64C294.924 70.32 295.724 70.64 296.284 71.36C296.924 72 297.244 72.88 296.924 73.2L295.004 75.04C293.324 76.96 291.084 80.4 291.964 84.08C292.444 86.4 292.204 88.24 291.564 89.6C291.164 90.32 290.604 90.88 290.044 91.36C289.484 91.76 288.844 92.08 288.204 92.24C287.084 92.48 285.964 92.32 285.084 91.84C280.524 89.52 283.004 85.04 283.004 84.96C283.244 84.56 283.964 84.72 284.684 85.36C285.404 86 285.724 86.88 285.564 87.28C285.564 87.36 284.444 89.36 284.604 89.44C284.924 89.6 285.564 89.6 286.204 89.44C286.764 89.36 287.324 89.12 287.804 88.72C288.284 88.4 288.764 87.84 289.004 87.28C289.564 86.16 289.804 84.72 289.404 82.88C289.404 81.84 288.684 81.76 290.604 78.24L287.324 82ZM322.377 43.44C322.617 43.12 323.417 43.28 324.057 44C324.697 44.64 325.017 45.52 324.777 45.84C324.777 45.92 318.937 54 312.697 63.36H333.097C333.657 63.36 334.537 64 334.937 64.72C335.417 65.52 335.337 66.16 334.777 66.16H310.857C309.177 68.72 307.497 71.36 305.897 73.92V74C305.897 74.32 305.737 74.48 305.577 74.48C300.697 82.4 298.057 86.96 298.937 88.56C300.377 91.28 316.617 78.32 316.617 78.24C316.937 78 317.417 77.84 318.057 78.56C318.697 79.28 318.217 79.68 317.897 79.92C317.817 80 299.657 97.92 295.737 90.72C294.537 88.48 298.217 80.8 303.337 72.32C303.257 72.32 303.817 71.44 303.817 71.44C303.977 65.36 283.497 66.16 283.497 66.16C282.937 66.16 282.057 65.52 281.657 64.72C281.177 64 281.257 63.36 281.817 63.36H308.857C315.577 52.88 322.297 43.52 322.377 43.44ZM304.697 70C305.497 68.72 306.297 67.44 307.097 66.16L297.097 65.76C299.497 66.72 303.417 68.32 304.697 70ZM319.421 78.8C320.541 78.48 321.741 78 323.021 77.44C324.701 76.56 326.141 74.88 327.021 73.36C327.181 73.04 327.261 72.8 327.421 72.48C326.541 72.88 325.501 73.52 324.301 74.4C322.701 75.6 320.861 77.12 319.421 78.8ZM325.101 80.08C321.341 82 317.101 82.48 316.861 82.48C311.421 94.16 333.021 84.24 335.501 79.76C335.741 79.28 336.541 78.72 337.261 79.36C337.901 80 337.901 80.32 337.661 80.8C335.421 84.72 322.941 93.36 317.421 90.24C314.701 88.72 313.021 85.52 313.661 82.4C314.061 80.4 315.261 78.32 316.861 76.48C318.461 74.72 320.301 73.04 322.061 71.76C324.381 70.16 326.541 69.2 327.421 69.36C328.141 69.52 328.781 69.92 329.341 70.56C330.141 71.44 330.461 72.48 330.301 73.44C330.221 74.16 329.901 74.88 329.501 75.68C328.621 77.36 327.021 79.12 325.101 80.08ZM325.758 105.68C326.238 104.88 329.838 98.56 330.638 97.04C331.198 96 331.918 94.88 332.558 93.6C337.038 85.12 343.678 72.88 347.918 72.32C353.278 71.6 354.318 77.68 352.238 81.92C350.638 86.16 346.718 90.56 344.638 90.56C342.238 90.56 340.478 89.04 339.438 87.52C336.398 92.48 330.558 103.12 328.158 107.52L327.518 108.64C327.118 110.08 326.478 111.52 325.678 112C323.838 113.04 322.798 108.08 323.518 104C324.318 99.84 341.198 67.68 341.918 66.48C342.318 65.76 345.518 67.6 345.198 68.08L325.758 105.68ZM349.758 75.12C347.598 75.36 344.158 79.92 340.478 85.76C340.798 86.4 341.598 87.76 343.038 87.76C344.638 87.76 347.438 83.44 348.958 79.44C349.438 78.24 349.838 77.2 349.998 76.24C350.078 75.36 349.998 74.72 349.838 74.48C349.598 74.08 349.998 75.04 349.758 75.12ZM388.456 73.04C388.856 72.72 389.656 73.04 390.296 73.76C390.936 74.48 391.176 75.28 390.776 75.6C389.016 77.12 386.136 80.56 384.376 83.92C383.256 86.16 383.336 87.44 384.136 87.84C387.416 88.32 396.296 79.68 396.296 79.6C396.616 79.28 397.176 78.64 397.816 79.36C398.536 80.08 398.216 80.32 397.896 80.64C397.816 80.64 384.536 95.04 381.096 89.04C379.976 87.04 380.536 84.32 381.896 81.6C383.656 78.16 386.616 74.56 388.456 73.04ZM393.416 70.72C393.096 71.12 392.296 70.8 391.656 70.16C391.016 69.44 390.696 68.64 391.016 68.24L395.496 63.12C395.816 62.72 396.536 63.04 397.256 63.68C397.896 64.4 398.136 65.2 397.896 65.6L393.416 70.72ZM398.859 74.8C399.099 74.4 399.899 74.56 400.539 75.2C401.259 75.84 401.579 76.72 401.339 77.12L399.339 80.72C403.659 77.12 408.379 73.6 410.139 74.08H410.299C412.699 74.8 413.099 76.32 412.539 78.32C412.299 79.2 411.739 80.24 411.179 81.44C410.139 83.52 408.939 85.84 408.939 85.84C411.499 87.52 420.139 79.92 420.219 79.92C420.459 79.6 421.339 78.56 421.979 79.28C422.699 79.92 422.219 80.08 421.899 80.48C421.899 80.48 413.179 90.8 409.019 88.08C405.419 85.76 407.179 82.24 408.699 79.12C409.019 78.48 409.339 77.84 409.579 77.2C405.019 79.6 394.379 89.76 394.059 90.08C393.819 90.4 393.099 90.16 392.459 89.6C391.819 88.88 391.419 88.08 391.659 87.68L398.859 74.8ZM468.939 43.44C469.179 43.12 469.979 43.28 470.619 44C471.259 44.64 471.579 45.52 471.339 45.84C471.339 45.92 465.499 54 459.259 63.36H479.659C480.219 63.36 481.099 64 481.499 64.72C481.979 65.52 481.899 66.16 481.339 66.16H457.419C455.739 68.72 454.059 71.36 452.459 73.92V74C452.459 74.32 452.299 74.48 452.139 74.48C447.259 82.4 444.619 86.96 445.499 88.56C446.939 91.28 463.179 78.32 463.179 78.24C463.499 78 463.979 77.84 464.619 78.56C465.259 79.28 464.779 79.68 464.459 79.92C464.379 80 446.219 97.92 442.299 90.72C441.099 88.48 444.779 80.8 449.899 72.32C449.819 72.32 450.379 71.44 450.379 71.44C450.539 65.36 430.059 66.16 430.059 66.16C429.499 66.16 428.619 65.52 428.219 64.72C427.739 64 427.819 63.36 428.379 63.36H455.419C462.139 52.88 468.859 43.52 468.939 43.44ZM451.259 70C452.059 68.72 452.859 67.44 453.659 66.16L443.659 65.76C446.059 66.72 449.979 68.32 451.259 70ZM480.703 49.52C480.943 49.12 481.743 49.36 482.383 50C483.103 50.64 483.423 51.52 483.183 51.92L465.663 80.32C470.063 76.96 474.543 74.96 475.023 80.24C475.103 80.96 475.183 86.16 475.183 86.16C475.503 86.56 478.063 85.92 485.103 79.36C485.423 79.04 485.903 78.32 486.543 78.96C487.183 79.68 487.183 80.24 486.863 80.56C478.943 87.92 475.103 89.76 473.263 87.84C471.343 85.76 471.983 82 471.743 79.2C471.503 77.2 458.783 91.52 458.703 91.6C458.463 91.92 457.743 91.68 457.103 91.04C456.383 90.4 456.063 89.52 456.303 89.12L480.703 49.52ZM488.249 78.8C489.369 78.48 490.569 78 491.849 77.44C493.529 76.56 494.969 74.88 495.849 73.36C496.009 73.04 496.089 72.8 496.249 72.48C495.369 72.88 494.329 73.52 493.129 74.4C491.529 75.6 489.689 77.12 488.249 78.8ZM493.929 80.08C490.169 82 485.929 82.48 485.689 82.48C480.249 94.16 501.849 84.24 504.329 79.76C504.569 79.28 505.369 78.72 506.089 79.36C506.729 80 506.729 80.32 506.489 80.8C504.249 84.72 491.769 93.36 486.249 90.24C483.529 88.72 481.849 85.52 482.489 82.4C482.889 80.4 484.089 78.32 485.689 76.48C487.289 74.72 489.129 73.04 490.889 71.76C493.209 70.16 495.369 69.2 496.249 69.36C496.969 69.52 497.609 69.92 498.169 70.56C498.969 71.44 499.289 72.48 499.129 73.44C499.049 74.16 498.729 74.88 498.329 75.68C497.449 77.36 495.849 79.12 493.929 80.08ZM541.56 81.2C541.32 81.68 540.6 81.52 539.96 80.88C539.24 80.24 538.84 79.36 539 78.96C539.08 78.96 540.36 76.16 540.04 76.16C538.52 76.08 535.24 78.24 532.76 81.04C531.8 82.08 531 83.2 530.36 84.32C529.8 85.36 529.48 86.48 529.4 87.44C529.4 88.16 529.56 88.8 529.96 89.2C533.32 92.16 549.72 79.84 549.8 79.84C550.12 79.76 550.84 78.8 551.4 78.96C552.04 79.68 552.28 80.48 551.96 80.8C551.88 80.8 534.6 95.6 529.24 90.8C527.48 89.2 526.76 87.44 526.84 85.68C526.84 84.4 527.24 83.2 527.88 82C528.52 80.8 529.4 79.68 530.36 78.56C533 75.6 536.6 73.28 538.44 73.36C545.24 73.6 541.56 81.2 541.56 81.2ZM553.322 75.36C553.642 75.12 554.442 75.44 555.082 76.16C555.722 76.88 555.882 77.68 555.562 78C555.322 78.16 555.082 78.32 554.922 78.48C553.242 80 551.882 82.48 551.002 84.96C550.362 87.04 550.042 88.96 550.442 89.76C550.842 89.92 551.322 89.92 551.962 89.76C552.682 89.52 553.562 89.04 554.362 88.24C555.482 87.28 556.522 85.84 557.482 84C558.042 82.96 558.442 81.84 558.762 80.72C557.322 79.52 556.282 78.08 555.642 76.64C555.002 75.2 554.762 73.76 554.842 72.72C555.002 71.6 555.482 70.8 556.442 70.64C557.162 70.56 557.802 70.72 558.442 71.04C559.482 71.6 560.362 72.56 560.922 73.76C561.402 74.64 561.642 75.6 561.802 76.64C561.962 77.68 561.962 78.88 561.802 80.08C563.562 80.4 566.202 80.72 569.002 79.12C569.402 78.88 569.802 78.56 570.442 79.28C571.002 80 570.922 80.56 570.522 80.8C566.762 82.88 563.962 83.2 561.482 82.32C561.162 83.68 560.682 85.12 559.962 86.32C559.002 88.16 557.882 89.76 556.682 90.8C555.722 91.6 554.842 92.24 553.962 92.48C552.922 92.8 551.882 92.72 550.842 92.16C550.282 91.84 549.722 91.44 549.242 90.88C549.082 90.72 548.922 90.56 548.762 90.4C547.482 88.56 547.562 85.6 548.442 82.8C549.322 80.16 550.842 77.52 552.602 75.92C552.842 75.76 553.082 75.52 553.322 75.36ZM559.162 78.8C559.322 77.52 559.322 76.24 559.162 75.2C559.082 74.48 558.922 73.84 558.762 73.44C558.682 73.44 558.842 73.44 558.842 73.44C558.762 73.36 558.522 73.36 558.282 73.44C557.802 73.44 557.562 73.92 557.482 74.64C557.402 75.36 557.562 76.24 557.962 77.12C558.202 77.76 558.602 78.32 559.162 78.8ZM571.437 74.8C571.677 74.4 572.477 74.56 573.117 75.2C573.837 75.84 574.157 76.72 573.917 77.12L571.917 80.72C576.237 77.12 580.957 73.6 582.717 74.08H582.877C585.277 74.8 585.677 76.32 585.117 78.32C584.877 79.2 584.317 80.24 583.757 81.44C582.717 83.52 581.517 85.84 581.517 85.84C584.077 87.52 592.717 79.92 592.797 79.92C593.037 79.6 593.917 78.56 594.557 79.28C595.277 79.92 594.797 80.08 594.477 80.48C594.477 80.48 585.757 90.8 581.597 88.08C577.997 85.76 579.757 82.24 581.277 79.12C581.597 78.48 581.917 77.84 582.157 77.2C577.597 79.6 566.957 89.76 566.637 90.08C566.397 90.4 565.677 90.16 565.037 89.6C564.397 88.88 563.997 88.08 564.237 87.68L571.437 74.8ZM615.423 43.44C615.663 43.12 616.463 43.28 617.103 44C617.743 44.64 618.063 45.52 617.823 45.84C617.823 45.92 611.983 54 605.743 63.36H626.143C626.703 63.36 627.583 64 627.983 64.72C628.463 65.52 628.383 66.16 627.823 66.16H603.903C602.223 68.72 600.543 71.36 598.943 73.92V74C598.943 74.32 598.783 74.48 598.623 74.48C593.743 82.4 591.103 86.96 591.983 88.56C593.423 91.28 609.663 78.32 609.663 78.24C609.983 78 610.463 77.84 611.103 78.56C611.743 79.28 611.263 79.68 610.943 79.92C610.863 80 592.703 97.92 588.783 90.72C587.583 88.48 591.263 80.8 596.383 72.32C596.303 72.32 596.863 71.44 596.863 71.44C597.023 65.36 576.543 66.16 576.543 66.16C575.983 66.16 575.103 65.52 574.703 64.72C574.223 64 574.303 63.36 574.863 63.36H601.903C608.623 52.88 615.343 43.52 615.423 43.44ZM597.743 70C598.543 68.72 599.343 67.44 600.143 66.16L590.143 65.76C592.543 66.72 596.463 68.32 597.743 70ZM612.468 78.8C613.588 78.48 614.788 78 616.068 77.44C617.748 76.56 619.188 74.88 620.068 73.36C620.228 73.04 620.308 72.8 620.468 72.48C619.588 72.88 618.548 73.52 617.348 74.4C615.748 75.6 613.908 77.12 612.468 78.8ZM618.148 80.08C614.388 82 610.148 82.48 609.908 82.48C604.468 94.16 626.068 84.24 628.548 79.76C628.788 79.28 629.588 78.72 630.308 79.36C630.948 80 630.948 80.32 630.708 80.8C628.468 84.72 615.988 93.36 610.468 90.24C607.748 88.72 606.068 85.52 606.708 82.4C607.108 80.4 608.308 78.32 609.908 76.48C611.508 74.72 613.348 73.04 615.108 71.76C617.428 70.16 619.588 69.2 620.468 69.36C621.188 69.52 621.828 69.92 622.388 70.56C623.188 71.44 623.508 72.48 623.348 73.44C623.268 74.16 622.948 74.88 622.548 75.68C621.668 77.36 620.068 79.12 618.148 80.08ZM631.125 74.8C631.365 74.4 632.165 74.56 632.805 75.2C633.525 75.84 633.845 76.72 633.605 77.12L631.605 80.72C635.925 77.12 640.645 73.6 642.405 74.08H642.565C644.965 74.8 645.365 76.32 644.805 78.32C644.565 79.2 644.005 80.24 643.445 81.44C642.405 83.52 641.205 85.84 641.205 85.84C643.765 87.52 652.405 79.92 652.485 79.92C652.725 79.6 653.605 78.56 654.245 79.28C654.965 79.92 654.485 80.08 654.165 80.48C654.165 80.48 645.445 90.8 641.285 88.08C637.685 85.76 639.445 82.24 640.965 79.12C641.285 78.48 641.605 77.84 641.845 77.2C637.285 79.6 626.645 89.76 626.325 90.08C626.085 90.4 625.365 90.16 624.725 89.6C624.085 88.88 623.685 88.08 623.925 87.68L631.125 74.8ZM675.111 43.44C675.351 43.12 676.151 43.28 676.791 44C677.431 44.64 677.751 45.52 677.511 45.84C677.511 45.92 671.671 54 665.431 63.36H685.831C686.391 63.36 687.271 64 687.671 64.72C688.151 65.52 688.071 66.16 687.511 66.16H663.591C661.911 68.72 660.231 71.36 658.631 73.92V74C658.631 74.32 658.471 74.48 658.311 74.48C653.431 82.4 650.791 86.96 651.671 88.56C653.111 91.28 669.351 78.32 669.351 78.24C669.671 78 670.151 77.84 670.791 78.56C671.431 79.28 670.951 79.68 670.631 79.92C670.551 80 652.391 97.92 648.471 90.72C647.271 88.48 650.951 80.8 656.071 72.32C655.991 72.32 656.551 71.44 656.551 71.44C656.711 65.36 636.231 66.16 636.231 66.16C635.671 66.16 634.791 65.52 634.391 64.72C633.911 64 633.991 63.36 634.551 63.36H661.591C668.311 52.88 675.031 43.52 675.111 43.44ZM657.431 70C658.231 68.72 659.031 67.44 659.831 66.16L649.831 65.76C652.231 66.72 656.151 68.32 657.431 70ZM706.169 81.2C705.929 81.68 705.209 81.52 704.569 80.88C703.849 80.24 703.449 79.36 703.609 78.96C703.689 78.96 704.969 76.16 704.649 76.16C703.129 76.08 699.849 78.24 697.369 81.04C696.409 82.08 695.609 83.2 694.969 84.32C694.409 85.36 694.089 86.48 694.009 87.44C694.009 88.16 694.169 88.8 694.569 89.2C697.929 92.16 714.329 79.84 714.409 79.84C714.729 79.76 715.449 78.8 716.009 78.96C716.649 79.68 716.889 80.48 716.569 80.8C716.489 80.8 699.209 95.6 693.849 90.8C692.089 89.2 691.369 87.44 691.449 85.68C691.449 84.4 691.849 83.2 692.489 82C693.129 80.8 694.009 79.68 694.969 78.56C697.609 75.6 701.209 73.28 703.049 73.36C709.849 73.6 706.169 81.2 706.169 81.2ZM720.011 70.8C720.251 70.4 721.051 70.64 721.691 71.28C722.411 71.92 722.731 72.8 722.491 73.2L719.531 77.92C722.331 76.56 726.171 75.28 727.771 77.28C728.491 78.08 728.251 79.92 729.291 80C730.811 80.08 733.051 79.76 735.211 79.12C735.691 78.96 736.171 78.56 736.651 79.28C737.211 80.08 736.891 80.32 736.411 80.4C734.091 81.12 730.251 81.92 728.571 81.76C726.491 81.6 725.851 81.04 724.091 78.96C722.891 77.52 715.771 83.84 715.771 83.84C715.611 83.92 711.451 90.96 711.051 91.68C710.811 92.08 710.011 91.84 709.371 91.2C708.651 90.56 708.331 89.68 708.571 89.28L720.011 70.8ZM738.405 78.8C739.525 78.48 740.725 78 742.005 77.44C743.685 76.56 745.125 74.88 746.005 73.36C746.165 73.04 746.245 72.8 746.405 72.48C745.525 72.88 744.485 73.52 743.285 74.4C741.685 75.6 739.845 77.12 738.405 78.8ZM744.085 80.08C740.325 82 736.085 82.48 735.845 82.48C730.405 94.16 752.005 84.24 754.485 79.76C754.725 79.28 755.525 78.72 756.245 79.36C756.885 80 756.885 80.32 756.645 80.8C754.405 84.72 741.925 93.36 736.405 90.24C733.685 88.72 732.005 85.52 732.645 82.4C733.045 80.4 734.245 78.32 735.845 76.48C737.445 74.72 739.285 73.04 741.045 71.76C743.365 70.16 745.525 69.2 746.405 69.36C747.125 69.52 747.765 69.92 748.325 70.56C749.125 71.44 749.445 72.48 749.285 73.44C749.205 74.16 748.885 74.88 748.485 75.68C747.605 77.36 746.005 79.12 744.085 80.08ZM767.942 77.92C768.262 78.72 768.022 79.2 767.382 79.04C766.742 78.88 765.942 78.16 765.622 77.44C764.022 75.92 760.102 77.76 758.662 78.96C755.702 81.36 754.022 84.24 753.142 87.92C755.942 87.12 763.222 78.64 763.222 78.64C763.542 78.32 764.262 78.56 764.982 79.28C765.542 79.92 765.862 80.64 765.622 81.04C765.462 81.44 764.502 83.52 764.982 85.76C765.302 87.68 775.702 78.96 775.862 78.88C776.182 78.56 776.822 78.16 777.462 78.8C778.102 79.52 778.022 80.16 777.702 80.48C772.422 85.2 769.302 88 767.142 89.12C763.462 91.04 760.662 89.92 760.742 86C757.862 88.72 754.902 91.2 753.142 90.4C752.502 90.16 752.022 89.68 751.542 89.2C750.742 88.16 750.422 87.04 750.582 85.84C750.662 84.88 750.982 83.84 751.462 82.8C752.502 80.56 754.342 78.08 756.422 76.4C760.022 73.44 766.582 73.28 767.942 77.92ZM798.002 43.44C798.242 43.12 799.042 43.28 799.682 44C800.322 44.64 800.642 45.52 800.402 45.84C800.402 45.92 794.562 54 788.322 63.36H808.722C809.282 63.36 810.162 64 810.562 64.72C811.042 65.52 810.962 66.16 810.402 66.16H786.482C784.802 68.72 783.122 71.36 781.522 73.92V74C781.522 74.32 781.362 74.48 781.202 74.48C776.322 82.4 773.682 86.96 774.562 88.56C776.002 91.28 792.242 78.32 792.242 78.24C792.562 78 793.042 77.84 793.682 78.56C794.322 79.28 793.842 79.68 793.522 79.92C793.442 80 775.282 97.92 771.362 90.72C770.162 88.48 773.842 80.8 778.962 72.32C778.882 72.32 779.442 71.44 779.442 71.44C779.602 65.36 759.122 66.16 759.122 66.16C758.562 66.16 757.682 65.52 757.282 64.72C756.802 64 756.882 63.36 757.442 63.36H784.482C791.202 52.88 797.922 43.52 798.002 43.44ZM780.322 70C781.122 68.72 781.922 67.44 782.722 66.16L772.722 65.76C775.122 66.72 779.042 68.32 780.322 70ZM797.206 73.04C797.606 72.72 798.406 73.04 799.046 73.76C799.686 74.48 799.926 75.28 799.526 75.6C797.766 77.12 794.886 80.56 793.126 83.92C792.006 86.16 792.086 87.44 792.886 87.84C796.166 88.32 805.046 79.68 805.046 79.6C805.366 79.28 805.926 78.64 806.566 79.36C807.286 80.08 806.966 80.32 806.646 80.64C806.566 80.64 793.286 95.04 789.846 89.04C788.726 87.04 789.286 84.32 790.646 81.6C792.406 78.16 795.366 74.56 797.206 73.04ZM802.166 70.72C801.846 71.12 801.046 70.8 800.406 70.16C799.766 69.44 799.446 68.64 799.766 68.24L804.246 63.12C804.566 62.72 805.286 63.04 806.006 63.68C806.646 64.4 806.886 65.2 806.646 65.6L802.166 70.72ZM808.009 75.36C808.329 75.12 809.129 75.44 809.769 76.16C810.409 76.88 810.569 77.68 810.249 78C810.009 78.16 809.769 78.32 809.609 78.48C807.929 80 806.569 82.48 805.689 84.96C805.049 87.04 804.729 88.96 805.129 89.76C805.529 89.92 806.009 89.92 806.649 89.76C807.369 89.52 808.249 89.04 809.049 88.24C810.169 87.28 811.209 85.84 812.169 84C812.729 82.96 813.129 81.84 813.449 80.72C812.009 79.52 810.969 78.08 810.329 76.64C809.689 75.2 809.449 73.76 809.529 72.72C809.689 71.6 810.169 70.8 811.129 70.64C811.849 70.56 812.489 70.72 813.129 71.04C814.169 71.6 815.049 72.56 815.609 73.76C816.089 74.64 816.329 75.6 816.489 76.64C816.649 77.68 816.649 78.88 816.489 80.08C818.249 80.4 820.889 80.72 823.689 79.12C824.089 78.88 824.489 78.56 825.129 79.28C825.689 80 825.609 80.56 825.209 80.8C821.449 82.88 818.649 83.2 816.169 82.32C815.849 83.68 815.369 85.12 814.649 86.32C813.689 88.16 812.569 89.76 811.369 90.8C810.409 91.6 809.529 92.24 808.649 92.48C807.609 92.8 806.569 92.72 805.529 92.16C804.969 91.84 804.409 91.44 803.929 90.88C803.769 90.72 803.609 90.56 803.449 90.4C802.169 88.56 802.249 85.6 803.129 82.8C804.009 80.16 805.529 77.52 807.289 75.92C807.529 75.76 807.769 75.52 808.009 75.36ZM813.849 78.8C814.009 77.52 814.009 76.24 813.849 75.2C813.769 74.48 813.609 73.84 813.449 73.44C813.369 73.44 813.529 73.44 813.529 73.44C813.449 73.36 813.209 73.36 812.969 73.44C812.489 73.44 812.249 73.92 812.169 74.64C812.089 75.36 812.249 76.24 812.649 77.12C812.889 77.76 813.289 78.32 813.849 78.8ZM826.125 74.8C826.365 74.4 827.165 74.56 827.805 75.2C828.525 75.84 828.845 76.72 828.605 77.12L826.605 80.72C830.925 77.12 835.645 73.6 837.405 74.08H837.565C839.965 74.8 840.365 76.32 839.805 78.32C839.565 79.2 839.005 80.24 838.445 81.44C837.405 83.52 836.205 85.84 836.205 85.84C838.765 87.52 847.405 79.92 847.485 79.92C847.725 79.6 848.605 78.56 849.245 79.28C849.965 79.92 849.485 80.08 849.165 80.48C849.165 80.48 840.445 90.8 836.285 88.08C832.685 85.76 834.445 82.24 835.965 79.12C836.285 78.48 836.605 77.84 836.845 77.2C832.285 79.6 821.645 89.76 821.325 90.08C821.085 90.4 820.365 90.16 819.725 89.6C819.085 88.88 818.685 88.08 818.925 87.68L826.125 74.8Z" fill="url(#paint0_linear_361_288)"/>
<defs>
<linearGradient id="paint0_linear_361_288" x1="0" y1="57" x2="873" y2="57" gradientUnits="userSpaceOnUse">
<stop stop-color="#00F2EA"/>
<stop offset="1" stop-color="#FF0050"/>
</linearGradient>
</defs>
</svg>
